<svg width="338" height="223" viewBox="0 0 338 223" fill="none" xmlns="http://www.w3.org/2000/svg">
<g id="Frame 1">
<g id="Vector 12">
<path fill-rule="evenodd" clip-rule="evenodd" d="M218.226 120.565C155.833 131.04 88.4129 152.12 84 165.065C87.8412 171.565 94.0704 177.1 102.5 181.732C129.356 196.49 178.545 202.087 244 200.565C282.017 199.362 297.019 192.519 322.5 179.065C341 160.065 345.5 138.565 318.5 120.565C303.064 111.098 261.875 113.236 218.226 120.565Z" fill="#ECEFF2"/>
<path d="M84 165.065C88.4129 152.12 155.833 131.04 218.226 120.565C225.657 119.131 113.079 91.006 75 88.5648C36.9208 86.1235 11.5001 80.5648 3 101.065C3 127.565 5.67942 154.549 23 157.565L102.5 181.732C94.0704 177.1 87.8412 171.565 84 165.065Z" fill="#FBFBFB"/>
</g>
<path id="Vector 7" d="M18.7779 197C12.7779 197 9.77794 194.5 9.27794 191C8.77794 187.5 10.2779 185.5 10.2779 183C10.2779 180.5 11.0771 180.306 3.27794 177.5C-4.52117 174.694 4.08589 165.224 3.77794 164C-2.22206 155 2.9685 150.098 8.27794 153C9.27794 152 10.5685 146.109 13.2779 142.5C12.2779 139.5 12.7779 137.5 12.7779 137.5C12.5946 131.619 19.2618 130.362 22.2779 135.5V141.5C26.2583 143.281 27.5737 149.067 28.2779 150.5C31.2106 149.228 32.7157 148.206 34.7779 145C36.2679 141.087 35.2988 135.572 42.2779 135.5C45.2779 135.5 48.7779 139 48.7779 141.5C48.7779 144 45.2779 147 45.2779 150C45.7456 151.5 45.2219 152.262 45.7779 153.5C47.8004 158.967 48.2608 162.033 45.7779 167.5C43.9943 170.152 42.042 172.309 40.2779 173C38.5139 173.691 39.2779 176 39.7779 177.5C40.2779 179 42.7042 184.451 42.2779 190C40.2121 194.416 38.0448 196.399 32.2779 199C32.2779 199 24.7779 197 18.7779 197Z" fill="#C7D1D9"/>
<path id="Vector 1" d="M312.278 215H323.778M332.278 215H323.778M323.778 215C323.778 215 323.778 103 323.778 99.5C323.778 96 321.278 96 318.778 94.5L285.778 76.5C285.778 76.5 283.778 75.5 282.278 76.5L272.278 82" stroke="#CDCDCD" stroke-width="3" stroke-linecap="round"/>
<g id="Vector 2">
<path d="M256.278 78.5C247.778 86 248.278 86 248.278 86C250.245 83.5417 267.682 98.9711 264.935 102.339C265.624 101.628 268.572 98.508 273.778 92C279.778 84.5 265.278 71.5 256.278 78.5Z" fill="#C5CFD6"/>
<path d="M248.278 86C246.278 89 262.778 104 264.778 102.5C264.778 102.5 264.83 102.448 264.935 102.339C267.682 98.9711 250.245 83.5417 248.278 86Z" fill="#F2F2F2"/>
</g>
<path id="lap" class="light" d="M248.168 86.264C246.168 89.2641 262.668 104.264 264.668 102.764C264.668 102.764 264.72 102.712 264.825 102.603C267.571 99.2352 250.134 83.8058 248.168 86.264Z" fill="#E9DBB8"/>
<path id="Rectangle 1" d="M264.278 175C264.278 173.895 265.173 173 266.278 173H295.278C296.383 173 297.278 173.895 297.278 175V216H264.278V175Z" fill="white"/>
<path id="Vector 3" d="M262.778 176.5V216M280.278 176.5V216M298.278 176.5V216" stroke="#C5CFD6" stroke-width="3" stroke-linecap="round" stroke-linejoin="round"/>
<g id="Vector 4">
<path d="M270.278 159C271.037 164.536 270.41 167.577 269.278 173H272.778L273.278 163C272.835 161.369 272.57 160.446 271.778 158.615C270.505 151.653 269.044 149.129 266.778 144C268.254 149.869 269.183 153.17 270.278 159Z" fill="#C1DEE2"/>
<path d="M271.778 158.615C272.57 160.446 272.835 161.369 273.278 163C274.884 157.966 275.532 155.048 275.778 149.5C272.725 141.514 270.243 137.597 265.278 131C268.232 136.642 270.38 139.09 271.778 147C272.612 151.536 272.317 154.079 271.778 158.615Z" fill="#89C5CC"/>
<path d="M273.278 163L272.778 173H276.778L277.778 164L279.278 152.5C278.822 144.785 278.473 139.506 277.778 133.151C277.506 130.668 277.182 128.021 276.778 125L276.482 132.25L276.186 139.5L275.778 149.5C275.532 155.048 274.884 157.966 273.278 163Z" fill="#56919C"/>
<path d="M266.778 116.5C266.813 118.189 266.877 119.101 267.278 120.5C270.544 128.529 272.444 132.835 276.186 139.5L276.482 132.25C274.158 130.861 271.596 125.991 266.778 116.5Z" fill="#C1DEE2"/>
<path d="M277.778 133.151C278.473 139.506 278.822 144.785 279.278 152.5C279.905 147.913 280.398 143.979 280.802 140C279.584 137.69 278.921 136.202 277.778 133.151Z" fill="#C1DEE2"/>
<path d="M279.278 152.5L277.778 164L276.778 173H285.278L286.278 157.5L285.778 149L282.278 117C281.888 126.837 281.464 133.479 280.802 140C280.398 143.979 279.905 147.913 279.278 152.5Z" fill="#89C5CC"/>
<path d="M285.778 149L286.278 157.5L285.278 173H290.778L291.278 156L289.528 140L287.778 124C287.276 124.995 287.035 125.474 286.778 126C285.654 134.844 285.889 139.965 285.778 149Z" fill="#56919C"/>
<path d="M289.528 140L291.278 156L293.278 152.5C291.633 140.074 291.925 133.364 295.278 122C292.252 128.472 290.35 131.954 289.528 140Z" fill="#C1DEE2"/>
<path d="M291.278 156L290.778 173H293.778C293.669 172.003 293.704 171.45 294.278 170.5C292.908 164.931 292.924 161.747 293.778 156L295.278 149L293.278 152.5L291.278 156Z" fill="#89C5CC"/>
<path d="M293.778 156C292.924 161.747 292.908 164.931 294.278 170.5C294.682 164.92 294.75 161.77 293.778 156Z" fill="#C1DEE2"/>
</g>
<path id="Vector 19" d="M69.4455 126.55L68 154.963C68 155.728 74.4654 156.116 81.0091 156.125C81.6528 156.126 82.2972 156.123 82.9364 156.117C88.954 156.056 94.5 155.672 94.5 154.963L92.5727 126.55C92.5727 124.483 69.4455 124.483 69.4455 126.55Z" fill="#E9DBB8"/>
<path id="Vector 6" d="M24.778 197.5C23.778 194.5 20.778 192 18.778 188.5C16.778 185 17.278 184 17.278 180.5C17.278 177 11.278 173.5 10.278 171C9.27795 168.5 9.77795 168.5 9.77795 165C9.77795 161.5 9.18057 159.918 7.27795 157" stroke="#AFB9C5" stroke-width="2" stroke-linecap="round"/>
<ellipse id="Ellipse 1" cx="24.278" cy="206" rx="14" ry="10" fill="#89C5CC"/>
<g id="Vector 8">
<path d="M69.278 126L67.778 153.5C67.778 154.241 74.4873 154.616 81.278 154.625C81.9459 154.626 82.6147 154.623 83.278 154.617C89.5227 154.559 95.278 154.186 95.278 153.5L93.278 126C93.278 124 69.278 124 69.278 126Z" fill="#C5CFD6"/>
<path d="M81.278 154.625L78.778 166H74.778C70.278 166 68.778 177 74.778 177H75.278H88.278C88.4495 177 88.6162 176.991 88.778 176.974C94.273 176.38 94.1064 166 88.278 166H85.278L83.278 154.617C82.6147 154.623 81.9459 154.626 81.278 154.625Z" fill="#C7D1D9"/>
<path d="M88.278 177H75.278V179.5H88.778V176.974C88.6162 176.991 88.4495 177 88.278 177Z" fill="#AFB9C5"/>
</g>
<path id="Vector 9" d="M60.278 216V180H103.278L103.778 216H96.778V187H66.778V216H60.278Z" fill="#F2F2F2"/>
<path id="Vector 16" d="M167.278 105.5C168.171 105.506 169.141 105.653 172.778 106.5C173.37 114.835 174.739 118.078 177.278 126.5C180.304 133.439 181.868 137.385 183.278 145L174.778 145.5L167.278 105.5Z" fill="#C7D1D9"/>
<circle id="Ellipse 2" cx="262.5" cy="49.5" r="18.5" fill="#F2F2F2"/>
<circle id="Ellipse 3" cx="263.278" cy="34" r="1" fill="#D9D9D9"/>
<ellipse id="lum" class="light" cx="58.278" cy="49.5" rx="11" ry="6.5" fill="#E9DBB8"/>
<circle id="Ellipse 4" cx="263.278" cy="64" r="1" fill="#D9D9D9"/>
<circle id="Ellipse 5" cx="248.278" cy="49" r="1" fill="#D9D9D9"/>
<circle id="Ellipse 6" cx="278.278" cy="49" r="1" fill="#D9D9D9"/>
<ellipse id="lum_2" class="light" cx="19.778" cy="66.5" rx="14.5" ry="6.5" fill="#E9DBB8"/>
<ellipse id="Ellipse 9" cx="19.778" cy="63.5" rx="17.5" ry="8.5" fill="#D9D9D9"/>
<g id="Vector 20">
<path d="M124.199 160.5C125.199 160 134 155 134 155L137.699 156L136.199 161L137.199 164.5H136.199L133.199 161.5C133.199 161.5 130.199 162.5 128.199 163C126.199 163.5 123.199 161 124.199 160.5Z" fill="#DEB49A"/>
<path d="M206.199 127L202.699 128.5L204.5 132.5L208.699 130C211.908 129.59 212.811 129.096 213.699 128L211.699 127.5L211.199 126.5L213.699 123L213.199 122H212.699C209.416 123.831 208.227 124.964 206.199 127Z" fill="#DEB49A"/>
</g>
<ellipse id="Ellipse 10" cx="58.278" cy="47.5" rx="13" ry="7.5" fill="#D9D9D9"/>
<g id="Vector 13">
<path fill-rule="evenodd" clip-rule="evenodd" d="M161.278 223C157.027 221.926 155.265 221.162 153.278 219.5C150.741 220.512 146.559 220.502 145.838 220.5C145.814 220.5 145.794 220.5 145.778 220.5C145.278 220.5 145.278 223 145.278 223H161.278Z" fill="#191847"/>
<path d="M147.778 216L145.778 220.5L145.838 220.5C146.559 220.502 150.741 220.512 153.278 219.5L154.278 216H147.778Z" fill="#DCAE92"/>
<path d="M178.778 220V223H194.278C190.171 221.748 188.394 220.984 186.278 219.5C186.107 219.549 185.941 219.595 185.778 219.639C183.485 220.258 181.961 220.375 179.778 220.13C179.46 220.094 179.128 220.051 178.778 220Z" fill="#191847"/>
<path d="M178.778 215.5L179.778 220.13C181.961 220.375 183.485 220.258 185.778 219.639V215.5H178.778Z" fill="#C79D84"/>
</g>
<g id="Vector 14">
<path d="M146.278 216H155.778C161.858 203.15 166.013 192.724 169.468 181.5C172.682 171.057 175.29 159.922 178.278 145.5L155.278 146C154.651 177.051 152.614 192.293 146.278 216Z" fill="#393F82"/>
<path d="M180.778 145.5H178.278C175.29 159.922 172.682 171.057 169.468 181.5L177.778 216H186.778C187.766 187.073 186.325 171.691 180.778 145.5Z" fill="#191847"/>
</g>
<path id="Vector 18" d="M164.278 101.5C165.278 101 167.278 98.5 167.278 98.5L177.778 92C178.926 91.8001 179.183 91.3923 178.778 90C180.874 87.8511 181.554 86.9008 179.278 87L177.278 85.5C178.04 82.0876 177.044 82.3286 174.778 83.5C173.056 81.6991 171.905 81.3059 169.278 82.5C165.987 81.3407 164.723 81.8745 163.778 85.5C157.92 83.8909 160.225 88.3891 160.278 90C158.778 91 156.993 91.5531 158.778 94.5C160.563 97.447 158.778 95.5 158.778 96C158.778 96.5 163.19 99.135 163.278 99.5C162.778 100.5 163.278 102 164.278 101.5Z" fill="#2C1B18"/>
<path id="Vector 17" d="M167.278 98.5C167.527 98.148 164.014 105.277 165.5 106L171.278 107L170.778 102C171.778 103.5 173.778 104.5 175.278 104.5C176.278 104.5 177.778 103.5 177.778 102.5V92H176.278C175.278 91 172.778 89.5 172.278 90L171.278 92.5H167.278L170.778 93.5L169.278 95.5C166.627 94.0831 164.778 95.5 164.778 96.5C164.778 97.5 165.278 98 167.278 98.5Z" fill="#DCAE92"/>
<g id="Vector 15">
<path d="M167.778 105.5C172.457 123.841 176.778 138.5 173.278 153H149.278L152.278 135.5C147.945 142.5 139.178 156.5 138.778 156.5C138.378 156.5 134.945 155.5 133.278 155C137.362 132.826 141.936 121.204 164.278 105.5H167.778Z" fill="#FFA434"/>
<path d="M172.778 108C179.916 119.725 182.278 132.5 189.278 131.5C194.568 130.799 197.522 129.988 202.778 128L204.778 133C195.617 140.969 191.037 142.479 183.278 143C180.906 134.507 178.939 129.497 175.278 120.5L172.778 108Z" fill="#E87613"/>
</g>
<path id="Vector 11" d="M19.778 0V55M58.778 0V40" stroke="#CBD5DC" stroke-width="2" stroke-linejoin="bevel"/>
<g id="hrs" class="hours">
<path id="pont-2" d="M262.344 49.0486L267.296 39.226L263.237 49.4988L262.344 49.0486Z" stroke="#B2BDC8"/>
<path id="pont-1" d="M268.5 54.5L263 49L262.5 50L268.5 54.5Z" stroke="#B2BDC8"/>
</g>
<circle id="Ellipse 7" cx="262.5" cy="49.5" r="1.5" fill="#D9D9D9"/>
</g>
</svg>
