<svg viewBox="0 0 369 252" fill="none" xmlns="http://www.w3.org/2000/svg">
	<g id="Frame 1">
		<g id="Vector 12">
			<path fill-rule="evenodd" clip-rule="evenodd" d="M232.226 141.565C169.833 152.04 102.413 173.12 98 186.065C101.841 192.565 108.07 198.1 116.5 202.732C143.356 217.49 192.545 223.087 258 221.565C296.017 220.362 311.019 213.519 336.5 200.065C355 181.065 359.5 159.565 332.5 141.565C317.064 132.098 275.875 134.236 232.226 141.565Z" fill="#ECEFF2" />
			<path d="M98 186.065C102.413 173.12 169.833 152.04 232.226 141.565C239.657 140.131 127.079 112.006 89 109.565C50.9208 107.124 25.5001 101.565 17 122.065C17 148.565 19.6794 175.549 37 178.565L116.5 202.732C108.07 198.1 101.841 192.565 98 186.065Z" fill="#FBFBFB" />
		</g>
		<path id="Vector 7" d="M32.7779 218C26.7779 218 23.7779 215.5 23.2779 212C22.7779 208.5 24.2779 206.5 24.2779 204C24.2779 201.5 25.0771 201.306 17.2779 198.5C9.47883 195.694 18.0859 186.224 17.7779 185C11.7779 176 16.9685 171.098 22.2779 174C23.2779 173 24.5685 167.109 27.2779 163.5C26.2779 160.5 26.7779 158.5 26.7779 158.5C26.5946 152.619 33.2618 151.362 36.2779 156.5V162.5C40.2583 164.281 41.5737 170.067 42.2779 171.5C45.2106 170.228 46.7157 169.206 48.7779 166C50.2679 162.087 49.2988 156.572 56.2779 156.5C59.2779 156.5 62.7779 160 62.7779 162.5C62.7779 165 59.2779 168 59.2779 171C59.7456 172.5 59.2219 173.262 59.7779 174.5C61.8004 179.967 62.2608 183.033 59.7779 188.5C57.9943 191.152 56.042 193.309 54.2779 194C52.5139 194.691 53.2779 197 53.7779 198.5C54.2779 200 56.7042 205.451 56.2779 211C54.2121 215.416 52.0448 217.399 46.2779 220C46.2779 220 38.7779 218 32.7779 218Z" fill="#C7D1D9" />
		<path id="Vector 1" d="M326.278 236H337.778M346.278 236H337.778M337.778 236C337.778 236 337.778 124 337.778 120.5C337.778 117 335.278 117 332.778 115.5L299.778 97.5C299.778 97.5 297.778 96.5 296.278 97.5L286.278 103" stroke="#CDCDCD" stroke-width="3" stroke-linecap="round" />
		<g id="Vector 2">
			<path d="M270.278 99.5C261.778 107 262.278 107 262.278 107C264.245 104.542 281.682 119.971 278.935 123.339C279.624 122.628 282.572 119.508 287.778 113C293.778 105.5 279.278 92.5 270.278 99.5Z" fill="#C5CFD6" />
			<path d="M262.278 107C260.278 110 276.778 125 278.778 123.5C278.778 123.5 278.83 123.448 278.935 123.339C281.682 119.971 264.245 104.542 262.278 107Z" fill="#F2F2F2" />
		</g>
		<path id="lap" d="M262.168 107.264C260.168 110.264 276.668 125.264 278.668 123.764C278.668 123.764 278.72 123.712 278.825 123.603C281.571 120.235 264.134 104.806 262.168 107.264Z" fill="#E9DBB8" />
		<path id="Rectangle 1" d="M278.278 196C278.278 194.895 279.173 194 280.278 194H309.278C310.383 194 311.278 194.895 311.278 196V237H278.278V196Z" fill="white" />
		<path id="Vector 3" d="M276.778 197.5V237M294.278 197.5V237M312.278 197.5V237" stroke="#C5CFD6" stroke-width="3" stroke-linecap="round" stroke-linejoin="round" />
		<g id="Vector 4">
			<path d="M284.278 180C285.037 185.536 284.41 188.577 283.278 194H286.778L287.278 184C286.835 182.369 286.57 181.446 285.778 179.615C284.505 172.653 283.044 170.129 280.778 165C282.254 170.869 283.183 174.17 284.278 180Z" fill="#C1DEE2" />
			<path d="M285.778 179.615C286.57 181.446 286.835 182.369 287.278 184C288.884 178.966 289.532 176.048 289.778 170.5C286.725 162.514 284.243 158.597 279.278 152C282.232 157.642 284.38 160.09 285.778 168C286.612 172.536 286.317 175.079 285.778 179.615Z" fill="#89C5CC" />
			<path d="M287.278 184L286.778 194H290.778L291.778 185L293.278 173.5C292.822 165.785 292.473 160.506 291.778 154.151C291.506 151.668 291.182 149.021 290.778 146L290.482 153.25L290.186 160.5L289.778 170.5C289.532 176.048 288.884 178.966 287.278 184Z" fill="#56919C" />
			<path d="M280.778 137.5C280.813 139.189 280.877 140.101 281.278 141.5C284.544 149.529 286.444 153.835 290.186 160.5L290.482 153.25C288.158 151.861 285.596 146.991 280.778 137.5Z" fill="#C1DEE2" />
			<path d="M291.778 154.151C292.473 160.506 292.822 165.785 293.278 173.5C293.905 168.913 294.398 164.979 294.802 161C293.584 158.69 292.921 157.202 291.778 154.151Z" fill="#C1DEE2" />
			<path d="M293.278 173.5L291.778 185L290.778 194H299.278L300.278 178.5L299.778 170L296.278 138C295.888 147.837 295.464 154.479 294.802 161C294.398 164.979 293.905 168.913 293.278 173.5Z" fill="#89C5CC" />
			<path d="M299.778 170L300.278 178.5L299.278 194H304.778L305.278 177L303.528 161L301.778 145C301.276 145.995 301.035 146.474 300.778 147C299.654 155.844 299.889 160.965 299.778 170Z" fill="#56919C" />
			<path d="M303.528 161L305.278 177L307.278 173.5C305.633 161.074 305.925 154.364 309.278 143C306.252 149.472 304.35 152.954 303.528 161Z" fill="#C1DEE2" />
			<path d="M305.278 177L304.778 194H307.778C307.669 193.003 307.704 192.45 308.278 191.5C306.908 185.931 306.924 182.747 307.778 177L309.278 170L307.278 173.5L305.278 177Z" fill="#89C5CC" />
			<path d="M307.778 177C306.924 182.747 306.908 185.931 308.278 191.5C308.682 185.92 308.75 182.77 307.778 177Z" fill="#C1DEE2" />
		</g>
		<path id="Vector 19" d="M83.4455 147.55L82 175.963C82 176.728 88.4654 177.116 95.0091 177.125C95.6528 177.126 96.2972 177.123 96.9364 177.117C102.954 177.056 108.5 176.672 108.5 175.963L106.573 147.55C106.573 145.483 83.4455 145.483 83.4455 147.55Z" fill="#E9DBB8" />
		<path id="Vector 6" d="M38.778 218.5C37.778 215.5 34.778 213 32.778 209.5C30.778 206 31.278 205 31.278 201.5C31.278 198 25.278 194.5 24.278 192C23.278 189.5 23.778 189.5 23.778 186C23.778 182.5 23.1806 180.918 21.278 178" stroke="#AFB9C5" stroke-width="2" stroke-linecap="round" />
		<ellipse id="Ellipse 1" cx="38.278" cy="227" rx="14" ry="10" fill="#89C5CC" />
		<g id="Vector 8">
			<path d="M83.278 147L81.778 174.5C81.778 175.241 88.4873 175.616 95.278 175.625C95.9459 175.626 96.6147 175.623 97.278 175.617C103.523 175.559 109.278 175.186 109.278 174.5L107.278 147C107.278 145 83.278 145 83.278 147Z" fill="#C5CFD6" />
			<path d="M95.278 175.625L92.778 187H88.778C84.278 187 82.778 198 88.778 198H89.278H102.278C102.45 198 102.616 197.991 102.778 197.974C108.273 197.38 108.106 187 102.278 187H99.278L97.278 175.617C96.6147 175.623 95.9459 175.626 95.278 175.625Z" fill="#C7D1D9" />
			<path d="M102.278 198H89.278V200.5H102.778V197.974C102.616 197.991 102.45 198 102.278 198Z" fill="#AFB9C5" />
		</g>
		<path id="Vector 9" d="M74.278 237V201H117.278L117.778 237H110.778V208H80.778V237H74.278Z" fill="#F2F2F2" />
		<path id="Vector 16" d="M181.278 126.5C182.171 126.506 183.141 126.653 186.778 127.5C187.37 135.835 188.739 139.078 191.278 147.5C194.304 154.439 195.868 158.385 197.278 166L188.778 166.5L181.278 126.5Z" fill="#C7D1D9" />
		<circle id="Ellipse 2" cx="276.5" cy="70.5" r="18.5" fill="#F2F2F2" />
		<circle id="Ellipse 3" cx="277.278" cy="55" r="1" fill="#D9D9D9" />
		<ellipse id="lum" cx="72.278" cy="70.5" rx="11" ry="6.5" fill="#E9DBB8" />
		<circle id="Ellipse 4" cx="277.278" cy="85" r="1" fill="#D9D9D9" />
		<circle id="Ellipse 5" cx="262.278" cy="70" r="1" fill="#D9D9D9" />
		<circle id="Ellipse 6" cx="292.278" cy="70" r="1" fill="#D9D9D9" />
		<ellipse id="lum_2" cx="33.778" cy="87.5" rx="14.5" ry="6.5" fill="#E9DBB8" />
		<ellipse id="Ellipse 9" cx="33.778" cy="84.5" rx="17.5" ry="8.5" fill="#D9D9D9" />
		<g id="Vector 20">
			<path d="M138.199 181.5C139.199 181 148 176 148 176L151.699 177L150.199 182L151.199 185.5H150.199L147.199 182.5C147.199 182.5 144.199 183.5 142.199 184C140.199 184.5 137.199 182 138.199 181.5Z" fill="#DEB49A" />
			<path d="M220.199 148L216.699 149.5L218.5 153.5L222.699 151C225.908 150.59 226.811 150.096 227.699 149L225.699 148.5L225.199 147.5L227.699 144L227.199 143H226.699C223.416 144.831 222.227 145.964 220.199 148Z" fill="#DEB49A" />
		</g>
		<ellipse id="Ellipse 10" cx="72.278" cy="68.5" rx="13" ry="7.5" fill="#D9D9D9" />
		<g id="Vector 13">
			<path fill-rule="evenodd" clip-rule="evenodd" d="M175.278 244C171.027 242.926 169.265 242.162 167.278 240.5C164.741 241.512 160.559 241.502 159.838 241.5C159.814 241.5 159.794 241.5 159.778 241.5C159.278 241.5 159.278 244 159.278 244H175.278Z" fill="#191847" />
			<path d="M161.778 237L159.778 241.5L159.838 241.5C160.559 241.502 164.741 241.512 167.278 240.5L168.278 237H161.778Z" fill="#DCAE92" />
			<path d="M192.778 241V244H208.278C204.171 242.748 202.394 241.984 200.278 240.5C200.107 240.549 199.941 240.595 199.778 240.639C197.485 241.258 195.961 241.375 193.778 241.13C193.46 241.094 193.128 241.051 192.778 241Z" fill="#191847" />
			<path d="M192.778 236.5L193.778 241.13C195.961 241.375 197.485 241.258 199.778 240.639V236.5H192.778Z" fill="#C79D84" />
		</g>
		<g id="Vector 14">
			<path d="M160.278 237H169.778C175.858 224.15 180.013 213.724 183.468 202.5C186.682 192.057 189.29 180.922 192.278 166.5L169.278 167C168.651 198.051 166.614 213.293 160.278 237Z" fill="#393F82" />
			<path d="M194.778 166.5H192.278C189.29 180.922 186.682 192.057 183.468 202.5L191.778 237H200.778C201.766 208.073 200.325 192.691 194.778 166.5Z" fill="#191847" />
		</g>
		<path id="Vector 18" d="M178.278 122.5C179.278 122 181.278 119.5 181.278 119.5L191.778 113C192.926 112.8 193.183 112.392 192.778 111C194.874 108.851 195.554 107.901 193.278 108L191.278 106.5C192.04 103.088 191.044 103.329 188.778 104.5C187.056 102.699 185.905 102.306 183.278 103.5C179.987 102.341 178.723 102.875 177.778 106.5C171.92 104.891 174.225 109.389 174.278 111C172.778 112 170.993 112.553 172.778 115.5C174.563 118.447 172.778 116.5 172.778 117C172.778 117.5 177.19 120.135 177.278 120.5C176.778 121.5 177.278 123 178.278 122.5Z" fill="#2C1B18" />
		<path id="Vector 17" d="M181.278 119.5C181.527 119.148 178.014 126.277 179.5 127L185.278 128L184.778 123C185.778 124.5 187.778 125.5 189.278 125.5C190.278 125.5 191.778 124.5 191.778 123.5V113H190.278C189.278 112 186.778 110.5 186.278 111L185.278 113.5H181.278L184.778 114.5L183.278 116.5C180.627 115.083 178.778 116.5 178.778 117.5C178.778 118.5 179.278 119 181.278 119.5Z" fill="#DCAE92" />
		<g id="Vector 15">
			<path d="M181.778 126.5C186.457 144.841 190.778 159.5 187.278 174H163.278L166.278 156.5C161.945 163.5 153.178 177.5 152.778 177.5C152.378 177.5 148.945 176.5 147.278 176C151.362 153.826 155.936 142.204 178.278 126.5H181.778Z" fill="#FFA434" />
			<path d="M186.778 129C193.916 140.725 196.278 153.5 203.278 152.5C208.568 151.799 211.522 150.988 216.778 149L218.778 154C209.617 161.969 205.037 163.479 197.278 164C194.906 155.507 192.939 150.497 189.278 141.5L186.778 129Z" fill="#E87613" />
		</g>
		<path id="Vector 11" d="M33.778 21V76M72.778 21V61" stroke="#CBD5DC" stroke-width="2" stroke-linejoin="bevel" />
		<path id="pont-2" d="M276 70V59L277 70H276Z" stroke="#B2BDC8" />
		<path id="pont-1" d="M282.5 75.5L277 70L276.5 71L282.5 75.5Z" stroke="#B2BDC8" />
		<circle id="Ellipse 7" cx="276.5" cy="70.5" r="1.5" fill="#D9D9D9" />
	</g>
</svg>
